<?xml version="1.0" standalone="no"?>
<!DOCTYPE svg PUBLIC "-//W3C//DTD SVG 20010904//EN"
 "http://www.w3.org/TR/2001/REC-SVG-20010904/DTD/svg10.dtd">
<svg version="1.0" xmlns="http://www.w3.org/2000/svg"
 width="70.000000pt" height="70.000000pt" viewBox="0 0 70.000000 70.000000"
 preserveAspectRatio="xMidYMid meet">
<metadata>
Created by potrace 1.11, written by Peter Selinger 2001-2013
</metadata>
<g transform="translate(0.000000,70.000000) scale(0.100000,-0.100000)"
fill="#000000" stroke="none">
<path d="M290 512 c-18 -2 -36 -19 -64 -62 -22 -33 -42 -57 -46 -55 -4 2 -24
29 -45 60 -37 52 -40 55 -82 55 -31 0 -43 -4 -44 -15 0 -8 0 -71 0 -140 0 -69
0 -136 0 -150 1 -23 4 -25 54 -25 l54 0 -2 44 c-4 64 8 72 34 26 12 -22 26
-40 31 -40 6 0 22 19 37 42 l28 42 3 -57 3 -57 109 0 c91 0 110 3 110 15 0 21
105 21 114 0 4 -11 20 -15 56 -15 27 0 50 2 50 5 0 3 -28 77 -62 165 l-61 160
-42 0 -41 0 -59 -159 c-33 -87 -62 -155 -65 -151 -3 4 -4 77 -4 162 2 171 8
159 -66 150z m-162 -123 l53 -81 37 54 c20 29 45 65 55 81 10 15 21 27 26 27
5 0 9 -57 10 -126 0 -69 -2 -123 -7 -121 -4 3 -7 51 -6 107 0 55 -2 103 -6
105 -3 2 -27 -30 -55 -71 -27 -41 -50 -74 -50 -74 -1 0 -26 34 -56 76 l-54 75
-6 -113 c-3 -62 -6 -106 -8 -98 -2 13 -4 213 -2 233 2 19 20 0 69 -74z m412
78 c0 -2 20 -57 45 -123 25 -65 45 -120 45 -123 0 -2 -8 3 -17 11 -12 10 -33
15 -60 13 -24 -1 -43 1 -43 5 0 4 18 8 41 8 23 1 43 3 46 5 2 3 -13 48 -33
101 -35 93 -42 103 -48 74 -2 -7 -7 -22 -11 -33 -42 -105 -55 -139 -55 -145 0
-4 11 -5 25 -2 14 2 25 0 25 -6 0 -5 -13 -8 -30 -7 -20 2 -30 -2 -30 -11 0 -8
-4 -14 -10 -14 -5 0 2 30 16 68 14 37 35 93 47 125 11 31 27 57 34 57 7 0 13
-2 13 -3z m-7 -185 c-21 -5 -25 2 -17 34 l7 29 13 -30 c10 -25 10 -31 -3 -33z"/>
</g>
</svg>
